<svg width="375" height="375" viewBox="0 0 375 375" fill="none" xmlns="http://www.w3.org/2000/svg">
<path d="M187.5 46.875L209.847 129.872C212.573 140 213.937 145.064 216.628 149.204C219.009 152.867 222.133 155.99 225.797 158.372C229.936 161.063 235 162.427 245.128 165.153L328.125 187.5L245.128 209.847C235 212.573 229.936 213.937 225.797 216.628C222.133 219.009 219.009 222.133 216.628 225.797C213.937 229.936 212.573 235 209.847 245.128L187.5 328.125L165.153 245.128C162.427 235 161.063 229.936 158.372 225.797C155.99 222.133 152.867 219.009 149.204 216.628C145.064 213.937 140 212.573 129.872 209.847L46.875 187.5L129.872 165.153C140 162.427 145.064 161.063 149.204 158.372C152.867 155.99 155.99 152.867 158.372 149.204C161.063 145.064 162.427 140 165.153 129.872L187.5 46.875Z" stroke="#E4D5A5" stroke-width="2" stroke-linecap="round" stroke-linejoin="round"/>
</svg>
